<?xml version="1.0" encoding="utf-8"?>
<!-- Generator: Adobe Illustrator 15.0.0, SVG Export Plug-In . SVG Version: 6.00 Build 0)  -->
<!DOCTYPE svg PUBLIC "-//W3C//DTD SVG 1.1//EN" "http://www.w3.org/Graphics/SVG/1.1/DTD/svg11.dtd">
<svg version="1.1" id="Layer_1" xmlns="http://www.w3.org/2000/svg" xmlns:xlink="http://www.w3.org/1999/xlink" x="0px" y="0px"
	 width="30.9px" height="31.1px" viewBox="0 0 30.9 31.1" style="enable-background:new 0 0 30.9 31.1;" xml:space="preserve">
<style type="text/css">
<![CDATA[
	.st0{fill-rule:evenodd;clip-rule:evenodd;fill:#E35F34;}
]]>
</style>
<path class="st0" d="M1,3.2c0,3,0,6.1,0,9.1c0.4,0.9,1.3,3.5,2.6,1.9c0-0.8-0.4-1.3-0.6-1.9C2.2,10.7,1.4,8.5,1.7,6
	c0.3-2.8,3.9-4.2,6-2.2c1.3,1.2,1,3,0.6,5c-0.2,0.9-0.3,2,0.8,2c0.8,0,0.9-1,1.1-2c0.2-0.9,0.4-1.9,0.4-2.6C10.5,2.4,6-0.2,2.4,1.9
	C1.9,2.2,1.5,2.8,1,3.2z"/>
<path class="st0" d="M16,5.8c0.6,0.1,1.4,1.1,1.8,1.6c3.6,3.5,7,6.7,10.6,10.1c0.6,0.6,1.3,1.1,1.4,2c0.1,1.3-1.5,2.3-2.2,3
	c-1.9,1.8-3.3,3.2-5.1,4.9c-0.8,0.7-1.7,2-2.7,2.3c-1.4,0.4-2.1-0.5-3-1.4c-3.6-3.5-6.9-6.6-10.4-10c-0.5-0.5-1.4-1.2-1.6-1.8
	c-0.5-1.3-0.1-3.7,0.1-5.2C4.8,10.7,4.9,9.9,5,8.9c0.1-0.7,0.1-1.9,0.5-2.3C6,6.1,7.1,6.3,8,6.1C7.8,6.8,8,7.4,7.8,8
	C7.7,8.2,7.4,8.4,7.2,8.6C7,8.9,6.8,9.1,6.7,9.5c-0.7,3.1,4.1,3.9,4.8,1.1c0.2-0.8-0.2-1.4-0.3-2c-0.1-0.9,0.4-1.4,0.2-2.8
	C13.1,5.8,14.6,5.7,16,5.8z M12.2,14.8c0.4,0.3,0.8,0.5,1.1,0.9c-1.1,2,0.1,4.5,2.2,4.3c1.3-0.1,2.2-1.1,3.1-1.5
	c0.8-0.3,1.4,0,1.4,0.8c-0.1,1.3-1.6,2.1-2.5,2.7c0.4,0.5,0.7,1,1.1,1.5c1-0.3,1.5-1,2.1-1.6c0.4,0.3,0.7,0.6,1.1,0.9
	c0.4-0.3,0.7-0.8,0.9-1.2c-0.4-0.3-0.8-0.6-1.2-1c1.2-2,0-4.6-2-4.6c-1.8,0-2.5,1.5-4.2,1.6c-1.4-1.1,0.7-2.7,1.7-3.1
	c-0.4-0.5-0.6-1.1-1.1-1.5c-0.7,0.4-1.2,0.9-1.7,1.4c-0.3-0.3-0.7-0.5-0.9-0.8C12.7,13.9,12.4,14.4,12.2,14.8z"/>
</svg>
